<svg width="56" height="56" viewBox="0 0 56 56" fill="none" xmlns="http://www.w3.org/2000/svg">
<g id="digital-marketing 1">
<g id="Digital Marketing">
<path id="Vector" d="M17.8508 1.16656C17.5942 1.16656 18.5275 1.16656 3.50082 1.16656C2.92916 1.16656 2.17082 0.466562 10.5008 6.70823L17.8508 1.16656Z" fill="#FF6838"/>
<path id="Vector_2" d="M19.8337 12.8333C19.8337 2.69498 19.892 3.24331 19.6937 2.72998C10.4303 9.67165 11.0487 9.33331 10.5003 9.33331C9.95199 9.33331 10.5003 9.61331 1.30699 2.72998C1.16699 3.25498 1.16699 2.75331 1.16699 12.8333C1.16699 13.4522 1.41282 14.0456 1.85041 14.4832C2.28799 14.9208 2.88149 15.1666 3.50033 15.1666H17.5003C18.1192 15.1666 18.7127 14.9208 19.1502 14.4832C19.5878 14.0456 19.8337 13.4522 19.8337 12.8333Z" fill="#FF6838"/>
<path id="Vector_3" d="M44.334 9.78831L47.554 8.16664L44.334 6.55664V9.78831Z" fill="#FF6838"/>
<path id="Vector_4" d="M52.5003 1.1665H38.5003C37.8815 1.1665 37.288 1.41234 36.8504 1.84992C36.4128 2.28751 36.167 2.881 36.167 3.49984V12.8332C36.167 13.452 36.4128 14.0455 36.8504 14.4831C37.288 14.9207 37.8815 15.1665 38.5003 15.1665H52.5003C53.1192 15.1665 53.7127 14.9207 54.1502 14.4831C54.5878 14.0455 54.8337 13.452 54.8337 12.8332V3.49984C54.8337 2.881 54.5878 2.28751 54.1502 1.84992C53.7127 1.41234 53.1192 1.1665 52.5003 1.1665ZM48.6037 10.2548C45.1037 11.9815 45.1037 12.1098 44.3337 12.1098C43.7148 12.1098 43.1213 11.864 42.6837 11.4264C42.2462 10.9888 42.0003 10.3953 42.0003 9.7765C42.0003 6.92984 41.6737 5.45984 43.167 4.57317C44.6603 3.6865 45.6287 4.57317 48.662 6.07817C49.0476 6.27705 49.3702 6.57953 49.5934 6.95163C49.8166 7.32372 49.9317 7.75069 49.9256 8.18456C49.9196 8.61843 49.7926 9.04202 49.5591 9.40773C49.3256 9.77345 48.9947 10.0668 48.6037 10.2548Z" fill="#FF6838"/>
<path id="Vector_5" d="M45.5003 47.8332C46.789 47.8332 47.8337 46.7885 47.8337 45.4998C47.8337 44.2112 46.789 43.1665 45.5003 43.1665C44.2117 43.1665 43.167 44.2112 43.167 45.4998C43.167 46.7885 44.2117 47.8332 45.5003 47.8332Z" fill="#FF6838"/>
<path id="Vector_6" d="M53.7487 43.1665C53.5333 43.1676 53.3224 43.1046 53.1429 42.9854C52.9635 42.8663 52.8235 42.6964 52.741 42.4975C52.6584 42.2985 52.6369 42.0795 52.6792 41.8683C52.7215 41.6571 52.8258 41.4633 52.9787 41.3115C53.1803 41.1083 53.2934 40.8336 53.2934 40.5473C53.2934 40.2611 53.1803 39.9864 52.9787 39.7832L51.217 38.0215C51.118 37.9188 50.9993 37.8372 50.868 37.7814C50.7367 37.7256 50.5955 37.6969 50.4528 37.6969C50.3102 37.6969 50.169 37.7256 50.0377 37.7814C49.9064 37.8372 49.7877 37.9188 49.6887 38.0215C49.5369 38.1744 49.3431 38.2786 49.1319 38.321C48.9207 38.3633 48.7016 38.3418 48.5027 38.2592C48.3037 38.1766 48.1339 38.0367 48.0147 37.8572C47.8956 37.6778 47.8325 37.4669 47.8337 37.2515C47.8337 36.9637 47.7193 36.6878 47.5159 36.4843C47.3124 36.2808 47.0364 36.1665 46.7487 36.1665H44.252C43.9642 36.1665 43.6883 36.2808 43.4848 36.4843C43.2813 36.6878 43.167 36.9637 43.167 37.2515C43.1681 37.4669 43.1051 37.6778 42.9859 37.8572C42.8668 38.0367 42.6969 38.1766 42.498 38.2592C42.299 38.3418 42.08 38.3633 41.8688 38.321C41.6576 38.2786 41.4637 38.1744 41.312 38.0215C41.213 37.9188 41.0943 37.8372 40.963 37.7814C40.8317 37.7256 40.6905 37.6969 40.5478 37.6969C40.4052 37.6969 40.264 37.7256 40.1327 37.7814C40.0014 37.8372 39.8827 37.9188 39.7837 38.0215L38.022 39.7832C37.9208 39.883 37.8404 40.002 37.7855 40.1332C37.7306 40.2644 37.7024 40.4051 37.7024 40.5473C37.7024 40.6895 37.7306 40.8303 37.7855 40.9615C37.8404 41.0927 37.9208 41.2117 38.022 41.3115C38.1693 41.4653 38.2687 41.6588 38.3079 41.8681C38.3471 42.0775 38.3245 42.2938 38.2429 42.4905C38.1612 42.6872 38.024 42.8559 37.848 42.976C37.6721 43.096 37.465 43.1622 37.252 43.1665C36.9642 43.1665 36.6883 43.2808 36.4848 43.4843C36.2813 43.6878 36.167 43.9637 36.167 44.2515V46.7482C36.167 47.0359 36.2813 47.3119 36.4848 47.5154C36.6883 47.7189 36.9642 47.8332 37.252 47.8332C37.4674 47.8321 37.6783 47.8951 37.8577 48.0142C38.0372 48.1334 38.1771 48.3032 38.2597 48.5022C38.3423 48.7011 38.3638 48.9202 38.3214 49.1314C38.2791 49.3426 38.1749 49.5364 38.022 49.6882C37.9193 49.7872 37.8376 49.9059 37.7819 50.0372C37.7261 50.1685 37.6973 50.3097 37.6973 50.4523C37.6973 50.595 37.7261 50.7362 37.7819 50.8675C37.8376 50.9988 37.9193 51.1175 38.022 51.2165L39.7837 52.9782C39.8827 53.0808 40.0014 53.1625 40.1327 53.2183C40.264 53.2741 40.4052 53.3028 40.5478 53.3028C40.6905 53.3028 40.8317 53.2741 40.963 53.2183C41.0943 53.1625 41.213 53.0808 41.312 52.9782C41.4637 52.8253 41.6576 52.7211 41.8688 52.6787C42.08 52.6364 42.299 52.6579 42.498 52.7405C42.6969 52.8231 42.8668 52.963 42.9859 53.1424C43.1051 53.3219 43.1681 53.5328 43.167 53.7482C43.167 54.0359 43.2813 54.3119 43.4848 54.5154C43.6883 54.7189 43.9642 54.8332 44.252 54.8332H46.7487C47.0364 54.8332 47.3124 54.7189 47.5159 54.5154C47.7193 54.3119 47.8337 54.0359 47.8337 53.7482C47.8325 53.5328 47.8956 53.3219 48.0147 53.1424C48.1339 52.963 48.3037 52.8231 48.5027 52.7405C48.7016 52.6579 48.9207 52.6364 49.1319 52.6787C49.3431 52.7211 49.5369 52.8253 49.6887 52.9782C49.7877 53.0808 49.9064 53.1625 50.0377 53.2183C50.169 53.2741 50.3102 53.3028 50.4528 53.3028C50.5955 53.3028 50.7367 53.2741 50.868 53.2183C50.9993 53.1625 51.118 53.0808 51.217 52.9782L52.9787 51.2165C53.0813 51.1175 53.163 50.9988 53.2188 50.8675C53.2746 50.7362 53.3033 50.595 53.3033 50.4523C53.3033 50.3097 53.2746 50.1685 53.2188 50.0372C53.163 49.9059 53.0813 49.7872 52.9787 49.6882C52.8258 49.5364 52.7215 49.3426 52.6792 49.1314C52.6369 48.9202 52.6584 48.7011 52.741 48.5022C52.8235 48.3032 52.9635 48.1334 53.1429 48.0142C53.3224 47.8951 53.5333 47.8321 53.7487 47.8332C54.0364 47.8332 54.3124 47.7189 54.5159 47.5154C54.7193 47.3119 54.8337 47.0359 54.8337 46.7482V44.2515C54.8337 43.9637 54.7193 43.6878 54.5159 43.4843C54.3124 43.2808 54.0364 43.1665 53.7487 43.1665ZM45.5003 50.1665C44.5773 50.1665 43.6751 49.8928 42.9077 49.38C42.1402 48.8672 41.5421 48.1384 41.1889 47.2857C40.8357 46.433 40.7433 45.4947 40.9233 44.5894C41.1034 43.6842 41.5478 42.8527 42.2005 42.2C42.8531 41.5474 43.6847 41.1029 44.5899 40.9228C45.4951 40.7428 46.4335 40.8352 47.2862 41.1884C48.1389 41.5416 48.8677 42.1397 49.3805 42.9072C49.8933 43.6746 50.167 44.5769 50.167 45.4998C50.167 46.7375 49.6753 47.9245 48.8002 48.7997C47.925 49.6748 46.738 50.1665 45.5003 50.1665Z" fill="#FF6838"/>
<path id="Vector_7" d="M8.65755 36.8318L4.52755 40.9501C3.87212 41.6064 3.50397 42.496 3.50397 43.4235C3.50397 44.351 3.87212 45.2405 4.52755 45.8968L7.82922 49.1985C8.48547 49.8539 9.37505 50.222 10.3026 50.222C11.2301 50.222 12.1196 49.8539 12.7759 49.1985L16.9059 45.0801L8.65755 36.8318Z" fill="#FF6838"/>
<path id="Vector_8" d="M17.7216 47.5532L14.4316 50.8549L17.7216 54.1449C18.17 54.5121 18.739 54.6992 19.3178 54.67C19.8966 54.6407 20.4438 54.3971 20.8528 53.9866C21.2619 53.5761 21.5035 53.028 21.5307 52.4491C21.5579 51.8703 21.3687 51.302 21 50.8549L17.7216 47.5532Z" fill="#FF6838"/>
<path id="Vector_9" d="M10.0107 34.8832L18.8424 43.7149L33.4024 36.8199L16.9057 20.3232L10.0107 34.8832Z" fill="#FF6838"/>
<path id="Vector_10" d="M23.9403 24.0681L29.657 29.7848C29.8694 28.9934 29.8696 28.1599 29.6576 27.3683C29.4457 26.5768 29.029 25.855 28.4496 25.2755C27.8701 24.6961 27.1483 24.2794 26.3568 24.0675C25.5652 23.8555 24.7318 23.8558 23.9403 24.0681Z" fill="#FF6838"/>
<path id="Vector_11" d="M31.7462 23.1466C32.3878 23.1466 32.4112 22.96 35.0478 20.3233C35.2675 20.1052 35.3916 19.8087 35.3927 19.4991C35.3937 19.1895 35.2718 18.8921 35.0537 18.6725C34.8355 18.4528 34.5391 18.3287 34.2295 18.3276C33.9199 18.3266 33.6225 18.4485 33.4028 18.6666L30.9295 21.14C30.7616 21.3018 30.6461 21.5102 30.5978 21.7383C30.5495 21.9664 30.5706 22.2038 30.6585 22.4198C30.7464 22.6357 30.897 22.8204 31.0909 22.95C31.2847 23.0795 31.513 23.148 31.7462 23.1466Z" fill="#FF6838"/>
<path id="Vector_12" d="M28.0003 19.8332V16.3332C28.0003 16.0238 27.8774 15.727 27.6586 15.5082C27.4398 15.2894 27.1431 15.1665 26.8337 15.1665C26.5242 15.1665 26.2275 15.2894 26.0087 15.5082C25.7899 15.727 25.667 16.0238 25.667 16.3332V19.8332C25.667 20.1426 25.7899 20.4393 26.0087 20.6581C26.2275 20.8769 26.5242 20.9998 26.8337 20.9998C27.1431 20.9998 27.4398 20.8769 27.6586 20.6581C27.8774 20.4393 28.0003 20.1426 28.0003 19.8332Z" fill="#FF6838"/>
<path id="Vector_13" d="M37.3337 25.6665H33.8337C33.5242 25.6665 33.2275 25.7894 33.0087 26.0082C32.7899 26.227 32.667 26.5238 32.667 26.8332C32.667 27.1426 32.7899 27.4393 33.0087 27.6581C33.2275 27.8769 33.5242 27.9998 33.8337 27.9998H37.3337C37.6431 27.9998 37.9398 27.8769 38.1586 27.6581C38.3774 27.4393 38.5003 27.1426 38.5003 26.8332C38.5003 26.5238 38.3774 26.227 38.1586 26.0082C37.9398 25.7894 37.6431 25.6665 37.3337 25.6665Z" fill="#FF6838"/>
</g>
</g>
</svg>
