<svg width="56" height="56" viewBox="0 0 56 56" fill="none" xmlns="http://www.w3.org/2000/svg">
<g id="layer 1">
<g id="Layer 53">
<path id="Vector" d="M51.3018 36.4789L44.7743 32.7164L51.3018 28.9451C51.4671 28.8489 51.6042 28.7109 51.6995 28.5451C51.7948 28.3793 51.8449 28.1914 51.8449 28.0001C51.8449 27.8089 51.7948 27.621 51.6995 27.4552C51.6042 27.2894 51.4671 27.1514 51.3018 27.0551L44.7831 23.2839L51.2668 19.5389C51.4502 19.4441 51.6022 19.2982 51.7043 19.1189C51.7768 18.9948 51.824 18.8577 51.8434 18.7153C51.8629 18.5729 51.854 18.4281 51.8175 18.2892C51.7809 18.1502 51.7173 18.0199 51.6303 17.9055C51.5434 17.7911 51.4347 17.695 51.3106 17.6226L28.5606 4.49764C28.3938 4.40332 28.2054 4.35376 28.0137 4.35376C27.8221 4.35376 27.6337 4.40332 27.4668 4.49764L4.71684 17.6226C4.54956 17.7183 4.41053 17.8565 4.31383 18.0233C4.21714 18.19 4.16621 18.3793 4.16621 18.572C4.16621 18.7647 4.21714 18.9541 4.31383 19.1208C4.41053 19.2875 4.54956 19.4257 4.71684 19.5214L11.2356 23.2839L4.7081 27.0551C4.54286 27.1514 4.40576 27.2894 4.31047 27.4552C4.21518 27.621 4.16504 27.8089 4.16504 28.0001C4.16504 28.1914 4.21518 28.3793 4.31047 28.5451C4.40576 28.7109 4.54286 28.8489 4.7081 28.9451L11.2356 32.7164L4.71684 36.4789C4.54956 36.5746 4.41053 36.7128 4.31383 36.8795C4.21714 37.0462 4.16621 37.2355 4.16621 37.4283C4.16621 37.621 4.21714 37.8103 4.31383 37.977C4.41053 38.1437 4.54956 38.2819 4.71684 38.3776L27.4668 51.5026C27.6312 51.5888 27.8151 51.631 28.0006 51.6251C28.1941 51.6236 28.3839 51.5724 28.5518 51.4764L51.3018 38.3514C51.4669 38.2539 51.6037 38.1151 51.6988 37.9486C51.7938 37.7821 51.8438 37.5937 51.8438 37.402C51.8438 37.2103 51.7938 37.0219 51.6988 36.8554C51.6037 36.6889 51.4669 36.5501 51.3018 36.4526V36.4789ZM7.4381 28.0001L13.4143 24.5526L27.4143 32.6551C27.5788 32.7519 27.766 32.8033 27.9568 32.8039C28.1503 32.8024 28.3401 32.7511 28.5081 32.6551L42.5081 24.5526L48.5631 28.0001L28.0006 39.8739L7.4381 28.0001ZM28.0006 49.2976L7.4381 37.4326L13.4143 33.9326L27.4143 42.0351C27.5787 42.1321 27.766 42.1833 27.9568 42.1833C28.1477 42.1833 28.335 42.1321 28.4993 42.0351L42.5431 33.9326L48.5193 37.4326L28.0006 49.2976Z" fill="#AF60ED"/>
</g>
</g>
</svg>
