<svg width="56" height="56" viewBox="0 0 56 56" fill="none" xmlns="http://www.w3.org/2000/svg">
<g id="graphic-design 1" clip-path="url(#clip0_129_950)">
<g id="Group">
<path id="Vector" d="M36.6708 28.2339C36.4193 30.289 35.4951 32.248 33.9725 33.7705C32.1219 35.6222 29.5352 36.4939 26.2867 36.3627C24.0084 36.2719 22.9562 36.868 22.7834 36.9763C22.0856 37.5877 21.1997 37.9224 20.2645 37.9224C19.2418 37.9224 18.2804 37.5242 17.5574 36.8013C16.3095 35.5533 16.1082 33.6283 16.9603 32.1616L17.5717 31.1925C17.7795 30.6861 18.0606 29.6864 17.995 28.0709C17.8648 24.8214 18.7365 22.2357 20.5872 20.3851C22.1031 18.8702 24.0412 17.9318 26.1369 17.6813C26.4333 16.2562 27.0753 14.9229 28.0017 13.8029H6.01941C3.6044 13.8029 1.63892 15.7672 1.63892 18.1823V39.9032H47.3361V18.3354L41.7831 25.1407C40.4771 26.7365 38.6637 27.8226 36.6708 28.2339Z" fill="#58BD7D"/>
<path id="Vector_2" d="M1.6389 44.5845C1.6389 46.9984 3.60438 48.9628 6.0194 48.9628H18.4684V52.7187H15.7091C14.803 52.7187 14.0685 53.4533 14.0685 54.3594C14.0685 55.2654 14.803 56 15.7091 56H33.2653C34.1714 56 34.9059 55.2654 34.9059 54.3594C34.9059 53.4533 34.1714 52.7187 33.2653 52.7187H30.506V48.9628H42.9554C45.3705 48.9628 47.3359 46.9984 47.3359 44.5845V43.1844H1.63879V44.5845H1.6389Z" fill="#58BD7D"/>
<path id="Vector_3" d="M19.9173 33.6694C19.917 33.6697 19.9166 33.67 19.9164 33.6703C19.9162 33.6704 19.9161 33.6705 19.916 33.6708L19.9155 33.6712C19.9153 33.6713 19.9152 33.6715 19.915 33.6717C19.9149 33.6721 19.9148 33.6721 19.9145 33.6723L19.9143 33.6724C19.9142 33.6726 19.914 33.6727 19.9138 33.6729C19.9138 33.6729 19.9138 33.6729 19.9137 33.6731C19.9136 33.6732 19.9134 33.6734 19.9132 33.6736C19.9132 33.6736 19.9132 33.6736 19.9131 33.6737C19.9129 33.6738 19.9128 33.674 19.9126 33.6743C19.9126 33.6743 19.9126 33.6743 19.9125 33.6744L19.9119 33.6749C19.7046 33.889 19.7066 34.2305 19.9181 34.4421C20.0249 34.5488 20.1648 34.6022 20.3048 34.6022C20.4435 34.6022 20.5822 34.5498 20.6886 34.4449C20.7221 34.4132 22.3788 32.8816 26.46 33.0457C28.7561 33.1382 30.5166 32.5882 31.6932 31.4117C34.1041 29.0008 34.1041 25.0779 31.6932 22.667C30.5253 21.4991 28.9725 20.8558 27.3208 20.8558C25.6691 20.8558 24.1163 21.499 22.9484 22.667C21.772 23.8434 21.2221 25.6041 21.3145 27.9001C21.4794 32.0036 19.9305 33.6558 19.9181 33.6687C19.9176 33.669 19.9175 33.6692 19.9173 33.6694Z" fill="#58BD7D"/>
<path id="Vector_4" d="M36.5282 24.8608C37.5979 24.5403 38.5615 23.9059 39.2801 23.0277L41.3764 20.4587L33.9087 12.991L31.3504 15.0805C30.47 15.798 29.8334 16.7605 29.5118 17.8302C31.2028 18.2272 32.7537 19.088 34.0126 20.3469C35.3011 21.6353 36.14 23.2048 36.5282 24.8608Z" fill="#58BD7D"/>
<path id="Vector_5" d="M53.3757 0.985169C52.154 -0.236549 50.2224 -0.333893 48.8837 0.759857L36.4633 10.9047L43.4618 17.9033L53.6021 5.47622C54.6948 4.13845 54.5974 2.20689 53.3757 0.985169Z" fill="#58BD7D"/>
</g>
</g>
<defs>
<clipPath id="clip0_129_950">
<rect width="56" height="56" fill="white"/>
</clipPath>
</defs>
</svg>
