<svg width="56" height="56" viewBox="0 0 56 56" fill="none" xmlns="http://www.w3.org/2000/svg">
<g clip-path="url(#clip0_129_963)">
<path d="M56 13.2344V5.03125C56 2.31733 53.792 0.109375 51.0781 0.109375H4.92188C2.20795 0.109375 0 2.31733 0 5.03125V13.2344H56ZM37.8438 6.67188H47.6875C48.5936 6.67188 49.3281 7.40644 49.3281 8.3125C49.3281 9.21856 48.5936 9.95312 47.6875 9.95312H37.8438C36.9377 9.95312 36.2031 9.21856 36.2031 8.3125C36.2031 7.40644 36.9377 6.67188 37.8438 6.67188ZM21.4375 6.67188C22.3436 6.67188 23.0781 7.40644 23.0781 8.3125C23.0781 9.21856 22.3436 9.95312 21.4375 9.95312C20.5314 9.95312 19.7969 9.21856 19.7969 8.3125C19.7969 7.40644 20.5314 6.67188 21.4375 6.67188ZM14.875 6.67188C15.7811 6.67188 16.5156 7.40644 16.5156 8.3125C16.5156 9.21856 15.7811 9.95312 14.875 9.95312C13.9689 9.95312 13.2344 9.21856 13.2344 8.3125C13.2344 7.40644 13.9689 6.67188 14.875 6.67188ZM8.3125 6.67188C9.21856 6.67188 9.95312 7.40644 9.95312 8.3125C9.95312 9.21856 9.21856 9.95312 8.3125 9.95312C7.40644 9.95312 6.67188 9.21856 6.67188 8.3125C6.67188 7.40644 7.40644 6.67188 8.3125 6.67188Z" fill="#4679FF"/>
<path d="M0 16.5156V50.9688C0 53.6827 2.20795 55.8906 4.92188 55.8906H51.0781C53.792 55.8906 56 53.6827 56 50.9688V16.5156H0ZM19.1811 39.8439C19.8888 40.4099 20.0034 41.4423 19.4374 42.1498C18.8715 42.8573 17.8388 42.9721 17.1314 42.406L8.92828 35.8435C8.10808 35.1876 8.10753 33.9378 8.92828 33.2813L17.1314 26.7188C17.8386 26.1528 18.8712 26.2674 19.4374 26.9749C20.0034 27.6825 19.8888 28.715 19.1811 29.2809L12.5794 34.5625L19.1811 39.8439ZM34.4298 23.7244L24.5861 46.6932C24.2292 47.5258 23.2649 47.9119 22.4318 47.5548C21.599 47.1979 21.2132 46.2334 21.5702 45.4006L31.4139 22.4318C31.7709 21.599 32.7354 21.2133 33.5682 21.5702C34.401 21.9271 34.7868 22.8915 34.4298 23.7244ZM47.0717 35.8436L38.8686 42.4061C38.1623 42.9714 37.1295 42.8585 36.5626 42.15C35.9966 41.4424 36.1113 40.4099 36.8189 39.844L43.4206 34.5625L36.8189 29.2811C36.1113 28.7151 35.9966 27.6827 36.5626 26.9752C37.1285 26.2676 38.161 26.1529 38.8686 26.719L47.0717 33.2815C47.8919 33.9374 47.8925 35.1871 47.0717 35.8436Z" fill="#4679FF"/>
</g>
<defs>
<clipPath id="clip0_129_963">
<rect width="56" height="56" fill="white"/>
</clipPath>
</defs>
</svg>
