<svg width="120" height="25" viewBox="0 0 120 25" fill="none" xmlns="http://www.w3.org/2000/svg">
<path d="M56.6126 18.9209H55.6256V24.1982H56.6126V18.9209Z" fill="#113255"/>
<path d="M59.1532 19.8258H57.4795V18.9209H61.8218V19.8258H60.1502V24.1982H59.1532V19.8258Z" fill="#113255"/>
<path d="M67.5456 24.2061V22.072H64.951V24.2061H63.9561V18.9289H64.951V21.1531H67.5456V18.9289H68.5326V24.2061H67.5456Z" fill="#113255"/>
<path d="M74.6547 21.5896C74.6387 22.9549 73.8018 24.3183 71.948 24.3183C70.0941 24.3183 69.2333 22.9829 69.2333 21.5956C69.2333 20.2082 70.1242 18.8128 71.948 18.8128C73.7718 18.8128 74.6687 20.2082 74.6547 21.5876M70.2143 21.6096C70.2363 22.4764 70.7047 23.4034 71.948 23.4034C73.1912 23.4034 73.6597 22.4684 73.6737 21.6016C73.6897 20.7127 73.1912 19.7157 71.948 19.7157C70.7047 19.7157 70.1922 20.7187 70.2143 21.6076" fill="#113255"/>
<path d="M80.0161 18.9289V21.9519C80.0161 23.5114 79.0591 24.3122 77.7318 24.3122C76.4045 24.3122 75.3875 23.5435 75.3875 21.9519V18.9289H76.3744V21.9519C76.3744 22.9008 76.917 23.4073 77.7398 23.4073C78.5626 23.4073 79.0291 22.8568 79.0291 21.9519V18.9289H80.0161Z" fill="#113255"/>
<path d="M84.2442 20.1941C84.0641 19.8918 83.5656 19.6055 82.993 19.6055C82.2543 19.6055 81.8999 19.9138 81.8999 20.3062C81.8999 20.7667 82.4425 20.8948 83.0751 20.9689C84.1762 21.105 85.2012 21.3913 85.2012 22.6506C85.2012 23.8277 84.1602 24.3322 82.985 24.3322C81.9059 24.3322 81.0771 23.9999 80.6847 23.0349L81.5135 22.6045C81.7478 23.1851 82.3584 23.4413 82.999 23.4413C83.6396 23.4413 84.2122 23.2231 84.2122 22.6506C84.2122 22.1541 83.6917 21.9499 82.991 21.8738C81.9119 21.7457 80.9169 21.4594 80.9169 20.2762C80.9169 19.1911 81.988 18.7467 82.961 18.7386C83.7818 18.7386 84.6346 18.9729 85.035 19.7857L84.2442 20.1921V20.1941Z" fill="#113255"/>
<path d="M89.906 24.1982H85.9561V18.9209H89.906V19.8859H86.943V21.0991H89.8019V22.026H86.943V23.2172H89.906V24.1982Z" fill="#113255"/>
<path d="M104.066 14.3223H97.96V15.8378H104.066V14.3223Z" fill="#113255"/>
<path d="M71.6516 14.3223H65.5455V15.8378H71.6516V14.3223Z" fill="#113255"/>
<path d="M31.1511 11.7617C31.9078 11.4234 32.2121 10.8188 32.2121 10.1881C32.2121 8.5445 31.0129 7.82178 29.4033 7.82178H25.5334V15.9799H29.4033C31.093 15.9799 32.4564 15.3974 32.4564 13.5795C32.4564 13.067 32.106 12.052 31.1511 11.7617ZM27.049 9.22117H29.4033C30.3823 9.22117 30.6846 9.84981 30.6846 10.2242C30.6846 10.6906 30.3703 11.0991 29.4033 11.0991H27.049V9.22318V9.22117ZM29.4033 14.5465H27.049V12.4484H29.4033C30.0319 12.4484 30.9308 12.8328 30.9308 13.5675C30.9308 14.3023 30.0339 14.5465 29.4033 14.5465Z" fill="#113255"/>
<path d="M45.9999 14.5786C43.9839 14.5786 43.2031 13.1692 43.1911 11.8158C43.1791 10.4525 44.03 8.985 45.9999 8.985C46.7107 8.985 47.4334 9.22925 47.9699 9.75377L48.9949 8.76278C48.1561 7.93596 47.1071 7.51553 45.9999 7.51553C43.051 7.51553 41.6636 9.6837 41.6756 11.8158C41.6876 13.938 42.9689 16.024 45.9999 16.024C47.1771 16.024 48.2602 15.6397 49.099 14.8108L48.05 13.7498C47.5135 14.2863 46.7107 14.5766 45.9999 14.5766" fill="#113255"/>
<path d="M85.4875 14.5786C83.4715 14.5786 82.6907 13.1692 82.6787 11.8158C82.6667 10.4525 83.5175 8.985 85.4875 8.985C86.1982 8.985 86.9209 9.22925 87.4575 9.75377L88.4825 8.76278C87.6436 7.93596 86.5946 7.51553 85.4875 7.51553C82.5385 7.51553 81.1512 9.6837 81.1632 11.8158C81.1752 13.938 82.4565 16.024 85.4875 16.024C86.6647 16.024 87.7477 15.6397 88.5866 14.8108L87.5375 13.7498C87.001 14.2863 86.1982 14.5766 85.4875 14.5766" fill="#113255"/>
<path d="M112.084 10.3823C112.084 8.97291 111.071 7.68962 109.147 7.67761H97.958V9.16911H109.159C110.126 9.16911 110.545 9.7637 110.545 10.4163C110.545 11.069 110.124 11.7217 109.145 11.7217H105.263V15.8358H106.801V13.109H108.28L110.659 15.8358H112.489V15.7317L110.018 12.9469C111.568 12.6326 112.08 11.5014 112.08 10.3823" fill="#113255"/>
<path d="M103.848 11.047H97.96V12.4804H103.848V11.047Z" fill="#113255"/>
<path d="M89.4635 15.8478H91.001V14.018V12.5505V11.1291V10.6286V7.68967H89.4635V15.8478Z" fill="#113255"/>
<path d="M95.0109 11.1291H91.7136V12.5505H95.0109V15.8478H96.5365V7.68967H95.0109V11.1291Z" fill="#113255"/>
<path d="M71.4294 11.047H65.5455V12.4804H71.4294V11.047Z" fill="#113255"/>
<path d="M73.2031 15.8358H74.7427V11.5855L73.2031 9.77771V15.8358Z" fill="#113255"/>
<path d="M78.4484 12.7367L74.4564 7.68562V7.67761H74.4504H72.8568H65.5455V9.1711H73.972L75.4875 11.2932L79.031 15.8478V15.8358H79.986V7.6676H78.4484V12.7367Z" fill="#113255"/>
<path d="M63.1791 11.6176C63.9359 11.2792 64.2402 10.6746 64.2402 10.044C64.2402 8.40034 63.039 7.67761 61.4314 7.67761H57.6075V9.07701H61.4314C62.4104 9.07701 62.7126 9.70564 62.7126 10.08C62.7126 10.5465 62.3983 10.9549 61.4314 10.9549H57.6075V12.3062H61.4314C62.06 12.3062 62.9589 12.6906 62.9589 13.4254C62.9589 14.1601 62.062 14.4043 61.4314 14.4043H57.6075V15.8378H61.4314C63.1211 15.8378 64.4844 15.2552 64.4844 13.4374C64.4844 12.9249 64.1341 11.9118 63.1791 11.6196" fill="#113255"/>
<path d="M49.9739 15.8358H51.5134V14.8748V12.2242V11.1291V9.30924V7.67761H49.9739V15.8358Z" fill="#113255"/>
<path d="M56.5246 7.72567V7.67963H54.6127L52.3784 10.1661V13.1391L54.927 15.8358H56.8269V15.7437L52.9009 11.6296L56.5246 7.72567Z" fill="#113255"/>
<path d="M36.3605 7.67761L32.7008 15.8358H34.3685L34.915 14.6346L35.6858 12.8648L37.1993 9.39133L38.3504 12.03L38.3525 12.032L38.7148 12.8648H38.7128L39.3795 14.4023L40.0201 15.8358H41.6978L38.0381 7.67761H36.3605Z" fill="#113255"/>
<path d="M116.713 10.8488C115.734 10.7327 114.895 10.5345 114.895 9.82377C114.895 9.70765 114.915 9.59754 114.955 9.49344H113.397C113.387 9.58553 113.379 9.67962 113.379 9.77772C113.379 11.6075 114.917 12.05 116.585 12.2482C117.668 12.3643 118.472 12.6786 118.472 13.4494C118.472 14.3343 117.564 14.6726 116.597 14.6726C115.63 14.6726 114.663 14.2762 114.3 13.3793L113.019 14.044C113.626 15.5355 114.907 16.048 116.575 16.048C118.392 16.048 120 15.2672 120 13.4494C120 11.5034 118.414 11.061 116.715 10.8508" fill="#113255"/>
<path d="M118.518 9.64759L119.742 9.01896C119.235 7.98793 118.258 7.5595 117.223 7.43738V8.81676C117.824 8.96291 118.308 9.29924 118.518 9.64759Z" fill="#113255"/>
<path d="M0.00200396 21.1672V24.4625H5.87788C5.58158 23.0611 5.01302 22.01 4.34435 21.2212C3.68369 21.4134 2.98499 21.5195 2.26026 21.5195C1.47147 21.5195 0.712713 21.3974 0 21.1692" fill="#6AA8FB"/>
<path d="M9.70766 13.7738C9.64159 12.0241 8.97092 10.4305 7.89985 9.19122C5.6476 9.19122 3.63158 8.18822 2.26622 6.60864C2.26622 6.60864 2.26422 6.60864 2.26222 6.60864C1.47343 6.60864 0.714666 6.73277 0.00195312 6.95899V18.8709C0.00195312 18.8709 2.5445 19.0911 4.3463 21.2193C5.05301 21.013 5.71567 20.7067 6.32027 20.3143C6.13809 16.7268 7.8558 14.8028 9.70966 13.7758" fill="#6AA8FB"/>
<path d="M7.89993 9.19121C7.89993 9.19121 7.90393 9.19121 7.90593 9.19121C9.2713 9.19121 10.5506 8.82484 11.6517 8.1822C9.69772 5.10312 10.0841 2.16418 10.0841 2.16418H2.81684C2.63466 2.53255 2.06809 3.59562 1.08911 4.74276C1.38941 5.42344 1.78781 6.05207 2.26829 6.60863C4.52055 6.60863 6.53656 7.61163 7.90192 9.19121" fill="#6AA8FB"/>
<path d="M11.6517 8.18419C12.3624 9.30731 12.6087 9.70571 13.7278 11.029C13.7278 11.029 16.0021 8.78079 14.7268 4.74475C14.0882 6.1902 13.0071 7.3954 11.6517 8.18419Z" fill="#6AA8FB"/>
<path d="M2.81684 2.29833C2.85888 2.21225 2.88091 2.1662 2.88091 2.1662H0.0941162V5.8639C0.486509 5.50954 0.836859 5.14317 1.14517 4.78481C0.804827 4.01805 0.594617 3.17921 0.544567 2.30034H2.81884L2.81684 2.29833Z" fill="#6AA8FB"/>
<path d="M18.2764 1.48547C16.917 1.48547 15.8159 2.58657 15.8159 3.94593C15.8159 5.30529 16.917 6.40639 18.2764 6.40639C19.6357 6.40639 20.7368 5.30529 20.7368 3.94593C20.7368 2.58657 19.6357 1.48547 18.2764 1.48547Z" fill="#6AA8FB"/>
<path d="M13.039 12.6827C12.2082 12.8068 10.9289 13.0951 9.7077 13.7738C9.71171 13.8699 9.71571 13.966 9.71571 14.0621C9.71571 16.6827 8.36235 18.985 6.32031 20.3123C6.38037 21.5035 6.64864 22.8749 7.19319 24.4585C7.19319 24.4585 12.4625 25.2793 15.3974 22.2903C9.76376 18.3424 13.041 12.6807 13.041 12.6807" fill="#6AA8FB"/>
<path d="M7.89999 9.19122C6.53463 7.61164 4.51661 6.61064 2.26636 6.60864C3.63172 8.18822 5.64974 9.18922 7.89999 9.19122Z" fill="#2D69FF"/>
<path d="M0.00195312 18.8709V21.1672C0.714666 21.3934 1.47343 21.5176 2.26222 21.5176C2.98494 21.5176 3.68364 21.4135 4.3463 21.2193C2.5445 19.0911 0.00195312 18.8709 0.00195312 18.8709Z" fill="#2D69FF"/>
<path d="M0.4646 2.1662C0.516652 3.07911 0.734871 3.94798 1.08522 4.74478C2.0662 3.59963 2.63077 2.53657 2.81295 2.1662H0.4646Z" fill="#2D69FF"/>
<path d="M9.71575 14.0621C9.71575 13.966 9.71175 13.8699 9.70775 13.7738C7.8539 14.8028 6.13617 16.7247 6.31836 20.3123C8.3624 18.983 9.71376 16.6807 9.71376 14.0621" fill="#2D69FF"/>
<path d="M14.5465 2.15616C15.1411 2.15616 15.6236 1.67368 15.6236 1.07908C15.6236 0.484487 15.1411 0 14.5465 0C13.9519 0 13.4674 0.482485 13.4674 1.07908C13.4674 1.67568 13.9499 2.15616 14.5465 2.15616Z" fill="#2D69FF"/>
<path d="M13.9519 12.5926C13.9519 12.5926 13.5956 12.6006 13.039 12.6827C13.039 12.6827 9.76172 18.3443 15.3954 22.2923C15.9559 21.7217 16.4324 21.011 16.7707 20.1301C18.8728 14.6346 13.9519 12.5926 13.9519 12.5926Z" fill="#2D69FF"/>
<path d="M11.2192 2.17421C11.1832 2.17221 11.1451 2.1682 11.1131 2.1662H10.0821C10.0821 2.1662 9.69769 5.10514 11.6496 8.18422C13.005 7.39543 14.0861 6.19022 14.7247 4.74478C14.2182 3.11315 12.8789 2.20224 11.2192 2.17421Z" fill="#2D69FF"/>
</svg>
