<svg width="49" height="49" viewBox="0 0 49 49" fill="none" xmlns="http://www.w3.org/2000/svg">
<g id="Frame">
<g id="Group">
<path id="Vector" fill-rule="evenodd" clip-rule="evenodd" d="M46 12.5C46 9.98044 44.9991 7.56408 43.2175 5.78249C41.4359 4.00089 39.0196 3 36.5 3H12.5C9.98044 3 7.56408 4.00089 5.78249 5.78249C4.00089 7.56408 3 9.98044 3 12.5V36.5C3 39.0196 4.00089 41.4359 5.78249 43.2175C7.56408 44.9991 9.98044 46 12.5 46H36.5C39.0196 46 41.4359 44.9991 43.2175 43.2175C44.9991 41.4359 46 39.0196 46 36.5V12.5ZM25.476 16.826L20.676 31.226C20.5682 31.5987 20.6087 31.9988 20.7893 32.3423C20.9698 32.6857 21.2763 32.946 21.6444 33.0686C22.0126 33.1911 22.4139 33.1664 22.7643 32.9997C23.1147 32.8329 23.3869 32.537 23.524 32.174L28.324 17.774C28.4318 17.4013 28.3913 17.0012 28.2107 16.6577C28.0302 16.3143 27.7237 16.054 27.3556 15.9314C26.9874 15.8089 26.5861 15.8336 26.2357 16.0003C25.8853 16.1671 25.6131 16.463 25.476 16.826ZM30.64 20.76L34.378 24.5L30.64 28.24C30.5008 28.3792 30.3904 28.5445 30.315 28.7263C30.2397 28.9082 30.2009 29.1031 30.2009 29.3C30.2009 29.4969 30.2397 29.6918 30.315 29.8737C30.3904 30.0555 30.5008 30.2208 30.64 30.36C30.7792 30.4992 30.9445 30.6096 31.1263 30.685C31.3082 30.7603 31.5031 30.7991 31.7 30.7991C31.8969 30.7991 32.0918 30.7603 32.2737 30.685C32.4555 30.6096 32.6208 30.4992 32.76 30.36L37.56 25.56C37.6993 25.4209 37.8099 25.2556 37.8853 25.0738C37.9607 24.8919 37.9995 24.6969 37.9995 24.5C37.9995 24.3031 37.9607 24.1081 37.8853 23.9262C37.8099 23.7444 37.6993 23.5791 37.56 23.44L32.76 18.64C32.6208 18.5008 32.4555 18.3904 32.2737 18.315C32.0918 18.2397 31.8969 18.2009 31.7 18.2009C31.5031 18.2009 31.3082 18.2397 31.1263 18.315C30.9445 18.3904 30.7792 18.5008 30.64 18.64C30.5008 18.7792 30.3904 18.9445 30.315 19.1263C30.2397 19.3082 30.2009 19.5031 30.2009 19.7C30.2009 19.8969 30.2397 20.0918 30.315 20.2737C30.3904 20.4555 30.5008 20.6208 30.64 20.76ZM16.24 18.64L11.44 23.44C11.3007 23.5791 11.1901 23.7444 11.1147 23.9262C11.0393 24.1081 11.0005 24.3031 11.0005 24.5C11.0005 24.6969 11.0393 24.8919 11.1147 25.0738C11.1901 25.2556 11.3007 25.4209 11.44 25.56L16.24 30.36C16.3792 30.4992 16.5445 30.6096 16.7263 30.685C16.9082 30.7603 17.1031 30.7991 17.3 30.7991C17.4969 30.7991 17.6918 30.7603 17.8737 30.685C18.0555 30.6096 18.2208 30.4992 18.36 30.36C18.4992 30.2208 18.6096 30.0555 18.685 29.8737C18.7603 29.6918 18.7991 29.4969 18.7991 29.3C18.7991 29.1031 18.7603 28.9082 18.685 28.7263C18.6096 28.5445 18.4992 28.3792 18.36 28.24L14.622 24.5L18.36 20.76C18.4992 20.6208 18.6096 20.4555 18.685 20.2737C18.7603 20.0918 18.7991 19.8969 18.7991 19.7C18.7991 19.5031 18.7603 19.3082 18.685 19.1263C18.6096 18.9445 18.4992 18.7792 18.36 18.64C18.2208 18.5008 18.0555 18.3904 17.8737 18.315C17.6918 18.2397 17.4969 18.2009 17.3 18.2009C17.1031 18.2009 16.9082 18.2397 16.7263 18.315C16.5445 18.3904 16.3792 18.5008 16.24 18.64Z" fill="#FF6838"/>
</g>
</g>
</svg>
