<svg width="48" height="49" viewBox="0 0 48 49" fill="none" xmlns="http://www.w3.org/2000/svg">
<g id="Frame" clip-path="url(#clip0_129_1795)">
<g id="Group">
<path id="Vector" d="M48 23.6299V4.8125C48 2.48628 46.1074 0.59375 43.7812 0.59375H4.21875C1.89253 0.59375 0 2.48637 0 4.8125V23.6299H48ZM21.847 15.0444H8.39062C7.61391 15.0444 6.98438 14.4148 6.98438 13.6381C6.98438 12.8614 7.61391 12.2319 8.39062 12.2319H21.847C22.6238 12.2319 23.2533 12.8613 23.2533 13.6381C23.2533 14.4149 22.6238 15.0444 21.847 15.0444ZM21.847 10.5583H8.39062C7.61391 10.5583 6.98438 9.92834 6.98438 9.152C6.98438 8.37528 7.61391 7.74575 8.39062 7.74575H21.847C22.6238 7.74575 23.2533 8.37528 23.2533 9.152C23.2533 9.92834 22.6238 10.5583 21.847 10.5583ZM21.847 19.5304H8.39062C7.61391 19.5304 6.98438 18.9009 6.98438 18.1242C6.98438 17.3478 7.61391 16.7179 8.39062 16.7179H21.847C22.6238 16.7179 23.2533 17.3478 23.2533 18.1242C23.2533 18.9009 22.6238 19.5304 21.847 19.5304ZM30.6633 21.0121C29.8865 21.0121 29.257 20.3826 29.257 19.6059C29.257 18.8295 29.8865 18.1996 30.6633 18.1996C31.4395 18.1996 32.0695 18.8295 32.0695 19.6059C32.0695 20.3826 31.4395 21.0121 30.6633 21.0121ZM34.5546 21.0121C33.7778 21.0121 33.1483 20.3826 33.1483 19.6059C33.1483 18.8295 33.7778 18.1996 34.5546 18.1996C35.3309 18.1996 35.9608 18.8295 35.9608 19.6059C35.9608 20.3826 35.3313 21.0121 34.5546 21.0121ZM40.8322 11.1717L37.6523 16.7652C37.5296 16.9812 37.3518 17.1608 37.1371 17.2858C36.9223 17.4108 36.6783 17.4767 36.4298 17.4767H29.9275C29.7427 17.4767 29.5597 17.4402 29.389 17.3694C29.2183 17.2986 29.0632 17.1948 28.9326 17.064C28.802 16.9333 28.6985 16.778 28.6279 16.6072C28.5573 16.4364 28.5211 16.2534 28.5213 16.0686L28.5275 10.4751V9.11572H27.7957C27.0194 9.11572 26.3895 8.48591 26.3895 7.70947C26.3895 6.93275 27.0194 6.30322 27.7957 6.30322H29.9337C30.7101 6.30322 31.34 6.93275 31.34 7.70947V9.07034H39.6094C39.8554 9.0704 40.0971 9.135 40.3104 9.25768C40.5237 9.38036 40.7011 9.55684 40.8248 9.7695C40.9486 9.98216 41.0144 10.2236 41.0157 10.4696C41.0169 10.7156 40.9537 10.9577 40.8322 11.1717ZM0 26.4424V30.218C0 32.5442 1.89262 34.4368 4.21875 34.4368H18.0682V39.4462H14.183C13.4062 39.4462 12.7767 40.0757 12.7767 40.8524C12.7767 41.6292 13.4062 42.2587 14.183 42.2587H33.8175C34.5938 42.2587 35.2238 41.6292 35.2238 40.8524C35.2238 40.0757 34.5938 39.4462 33.8175 39.4462H29.9319V34.4368H43.7812C46.1075 34.4368 48 32.5442 48 30.218V26.4425L0 26.4424ZM23.3925 27.7557H24.6075C25.3839 27.7557 26.0138 28.3851 26.0138 29.1619C26.0138 29.9386 25.3839 30.5682 24.6075 30.5682H23.3925C22.6161 30.5682 21.9862 29.9386 21.9862 29.1619C21.9862 28.3851 22.6161 27.7557 23.3925 27.7557Z" fill="#627EEA"/>
</g>
</g>
<defs>
<clipPath id="clip0_129_1795">
<rect width="48" height="48" fill="white" transform="translate(0 0.5)"/>
</clipPath>
</defs>
</svg>
