<svg width="48" height="49" viewBox="0 0 48 49" fill="none" xmlns="http://www.w3.org/2000/svg">
<g id="Frame">
<g id="Group">
<path id="Vector" d="M40.8 27.7001C40.8 21.9531 36.144 17.3 30.3998 17.3C24.6561 17.3 20.0016 21.9531 20.0016 27.7001C18.6768 27.7001 17.6016 28.7749 17.6016 30.1001V38.0998C17.6016 39.4251 18.6768 40.4998 20.0016 40.4998H24.8016C25.2422 40.4998 25.5998 40.1422 25.5998 39.7001V34.1C25.5998 33.2201 25.2796 31.856 24.886 31.0688L23.2017 27.7001C23.2017 23.7219 26.422 20.5001 30.4003 20.5001C34.3752 20.5001 37.6003 23.7219 37.6003 27.7001L35.916 31.0688C35.5224 31.8565 35.2003 33.2201 35.2003 34.1V39.8845C33.7698 40.8088 32.1029 41.3003 30.3998 41.3H28.8V43.7H30.3998C33.4641 43.7 36.2376 42.4765 38.2747 40.4998H40.8C41.4365 40.4998 42.0469 40.247 42.497 39.7969C42.9471 39.3468 43.2 38.7363 43.2 38.0998V30.1001C43.2 29.4636 42.9471 28.8532 42.497 28.4031C42.0469 27.953 41.4365 27.7001 40.8 27.7001Z" fill="#AF60ED"/>
<path id="Vector_2" d="M30.3996 14.9C30.9435 14.9 31.4748 14.9451 32 15.0109V8.50015C32 6.74047 30.559 5.29999 28.7998 5.29999H7.99996C6.2398 5.29999 4.7998 6.74047 4.7998 8.50015V18.1001C4.7998 19.8598 6.2398 21.3003 7.99996 21.3003V26.1003L16.0001 21.3003H19.3337C21.5504 17.4809 25.6745 14.9 30.3996 14.9ZM23.9998 11.6998C24.21 11.6996 24.4181 11.7409 24.6123 11.8212C24.8064 11.9016 24.9829 12.0194 25.1315 12.168C25.2801 12.3166 25.3979 12.493 25.4783 12.6872C25.5586 12.8814 25.5998 13.0895 25.5996 13.2997C25.5996 13.6161 25.5058 13.9254 25.33 14.1885C25.1542 14.4516 24.9044 14.6566 24.612 14.7777C24.3197 14.8988 23.998 14.9305 23.6877 14.8688C23.3774 14.807 23.0923 14.6547 22.8685 14.4309C22.6448 14.2072 22.4924 13.9221 22.4307 13.6118C22.369 13.3014 22.4007 12.9798 22.5217 12.6874C22.6428 12.3951 22.8479 12.1452 23.111 11.9694C23.3741 11.7937 23.6834 11.6998 23.9998 11.6998ZM12.8 14.9C12.3756 14.9 11.9686 14.7314 11.6685 14.4313C11.3685 14.1313 11.1999 13.7243 11.1999 13.2999C11.1999 12.8755 11.3685 12.4686 11.6685 12.1685C11.9686 11.8684 12.3756 11.6998 12.8 11.6998C13.2243 11.6998 13.6313 11.8684 13.9314 12.1685C14.2315 12.4686 14.4 12.8755 14.4 13.2999C14.4 13.7243 14.2315 14.1313 13.9314 14.4313C13.6313 14.7314 13.2243 14.9 12.8 14.9ZM16.7998 13.3001C16.7998 12.8758 16.9684 12.4688 17.2685 12.1687C17.5685 11.8686 17.9755 11.7001 18.3999 11.7001C18.8243 11.7001 19.2312 11.8686 19.5313 12.1687C19.8314 12.4688 20 12.8758 20 13.3001C20 13.7245 19.8314 14.1315 19.5313 14.4316C19.2312 14.7316 18.8243 14.9002 18.3999 14.9002C17.9755 14.9002 17.5685 14.7316 17.2685 14.4316C16.9684 14.1315 16.7998 13.7245 16.7998 13.3001Z" fill="#AF60ED"/>
</g>
</g>
</svg>
