<svg width="48" height="49" viewBox="0 0 48 49" fill="none" xmlns="http://www.w3.org/2000/svg">
<g id="Frame">
<g id="Group">
<path id="Vector" d="M23.2499 15.5H26.2499V17H23.2499V15.5ZM16.4249 15.5L16.1699 17.75H18.3299L18.0749 15.5H16.4249Z" fill="#58BD7D"/>
<path id="Vector_2" d="M43.5 41C42.8366 41.0022 42.1926 41.2242 41.6687 41.6313C41.1449 42.0384 40.7708 42.6077 40.605 43.25H38.25C38.0511 43.25 37.8603 43.171 37.7196 43.0304C37.579 42.8897 37.5 42.6989 37.5 42.5V37.25H39.105C39.2875 37.957 39.7216 38.5732 40.326 38.983C40.9303 39.3928 41.6634 39.5681 42.3877 39.4761C43.1121 39.3841 43.778 39.0311 44.2607 38.4832C44.7434 37.9353 45.0097 37.2302 45.0097 36.5C45.0097 35.7698 44.7434 35.0647 44.2607 34.5169C43.778 33.969 43.1121 33.6159 42.3877 33.5239C41.6634 33.4319 40.9303 33.6073 40.326 34.0171C39.7216 34.4269 39.2875 35.043 39.105 35.75H37.5V24.5H39.75C41.5402 24.5 43.2571 23.7889 44.5229 22.523C45.7888 21.2571 46.5 19.5402 46.5 17.75C46.5 15.9598 45.7888 14.2429 44.5229 12.9771C43.2571 11.7112 41.5402 11 39.75 11H38.205C38.0768 9.82925 37.6437 8.71259 36.949 7.76153C36.2542 6.81047 35.3222 6.05829 34.2458 5.58009C33.1695 5.10189 31.9866 4.91441 30.8151 5.03635C29.6437 5.15829 28.5247 5.5854 27.57 6.27503C26.2407 4.59106 24.4572 3.32281 22.4301 2.62019C20.4031 1.91757 18.2172 1.80993 16.1309 2.31001C14.0447 2.81009 12.1451 3.89697 10.6569 5.44221C9.16863 6.98744 8.15385 8.92644 7.73247 11.03C5.99266 11.1626 4.37193 11.9643 3.21072 13.2666C2.04951 14.569 1.43819 16.2706 1.50518 18.0142C1.57216 19.7578 2.31224 21.4075 3.56995 22.617C4.82766 23.8264 6.50512 24.5013 8.24997 24.5H10.5V34.25H8.89497C8.71243 33.543 8.2783 32.9269 7.67397 32.5171C7.06963 32.1073 6.33658 31.9319 5.61222 32.0239C4.88786 32.1159 4.22192 32.469 3.73923 33.0169C3.25654 33.5647 2.99023 34.2698 2.99023 35C2.99023 35.7302 3.25654 36.4353 3.73923 36.9832C4.22192 37.5311 4.88786 37.8841 5.61222 37.9761C6.33658 38.0681 7.06963 37.8928 7.67397 37.483C8.2783 37.0732 8.71243 36.457 8.89497 35.75H10.5V42.5C10.5 42.6989 10.421 42.8897 10.2803 43.0304C10.1396 43.171 9.94888 43.25 9.74997 43.25H7.39497C7.21243 42.543 6.7783 41.9269 6.17397 41.5171C5.56963 41.1073 4.83658 40.9319 4.11222 41.0239C3.38786 41.1159 2.72192 41.469 2.23923 42.0169C1.75654 42.5647 1.49023 43.2698 1.49023 44C1.49023 44.7302 1.75654 45.4353 2.23923 45.9832C2.72192 46.5311 3.38786 46.8841 4.11222 46.9761C4.83658 47.0681 5.56963 46.8928 6.17397 46.483C6.7783 46.0732 7.21243 45.457 7.39497 44.75H9.74997C10.3462 44.7482 10.9174 44.5106 11.339 44.0891C11.7606 43.6675 11.9982 43.0962 12 42.5V35.75H18C18.5962 35.7482 19.1674 35.5106 19.589 35.0891C20.0106 34.6675 20.2482 34.0962 20.25 33.5V24.5H23.25V41.105C22.543 41.2876 21.9268 41.7217 21.517 42.326C21.1072 42.9304 20.9319 43.6634 21.0239 44.3878C21.1159 45.1121 21.4689 45.7781 22.0168 46.2608C22.5647 46.7435 23.2698 47.0098 24 47.0098C24.7302 47.0098 25.4353 46.7435 25.9831 46.2608C26.531 45.7781 26.8841 45.1121 26.9761 44.3878C27.0681 43.6634 26.8927 42.9304 26.4829 42.326C26.0731 41.7217 25.457 41.2876 24.75 41.105V24.5H27.75V35C27.7518 35.5962 27.9894 36.1675 28.4109 36.5891C28.8325 37.0106 29.4038 37.2482 30 37.25H36V42.5C36.0018 43.0962 36.2394 43.6675 36.6609 44.0891C37.0825 44.5106 37.6538 44.7482 38.25 44.75H40.605C40.7461 45.2921 41.0364 45.7838 41.4429 46.1693C41.8494 46.5547 42.3558 46.8184 42.9047 46.9305C43.4535 47.0425 44.0228 46.9985 44.5478 46.8032C45.0729 46.608 45.5327 46.2695 45.875 45.826C46.2173 45.3826 46.4285 44.8521 46.4844 44.2947C46.5404 43.7373 46.4389 43.1754 46.1916 42.6728C45.9442 42.1702 45.5609 41.747 45.0851 41.4513C44.6093 41.1557 44.0602 40.9993 43.5 41ZM18.75 33.5C18.75 33.6989 18.671 33.8897 18.5303 34.0304C18.3897 34.171 18.1989 34.25 18 34.25H12V24.5H18.75V33.5ZM18.7575 21.5825L18.495 19.25H16.005L15.7425 21.5825L14.2575 21.4175L15.0075 14.6675C15.026 14.4838 15.1123 14.3136 15.2496 14.1901C15.3869 14.0667 15.5653 13.9989 15.75 14H18.75C18.9346 13.9989 19.113 14.0667 19.2503 14.1901C19.3877 14.3136 19.474 14.4838 19.4925 14.6675L20.2425 21.4175L18.7575 21.5825ZM27.75 17.75C27.75 17.9489 27.671 18.1397 27.5303 18.2804C27.3897 18.421 27.1989 18.5 27 18.5H23.25V21.5H21.75V14.75C21.75 14.5511 21.829 14.3604 21.9696 14.2197C22.1103 14.079 22.3011 14 22.5 14H27C27.1989 14 27.3897 14.079 27.5303 14.2197C27.671 14.3604 27.75 14.5511 27.75 14.75V17.75ZM29.25 20H30.75V15.5H29.25V14H33.75V15.5H32.25V20H33.75V21.5H29.25V20ZM36 35.75H30C29.8011 35.75 29.6103 35.671 29.4696 35.5304C29.329 35.3897 29.25 35.1989 29.25 35V24.5H36V35.75Z" fill="#58BD7D"/>
</g>
</g>
</svg>
