<svg width="48" height="48" viewBox="0 0 48 48" fill="none" xmlns="http://www.w3.org/2000/svg">
<g id="Frame" clip-path="url(#clip0_129_1786)">
<g id="Group">
<path id="Vector" d="M24.0001 9.60001C21.1521 9.60001 18.368 10.4446 15.9999 12.0268C13.6318 13.6091 11.7861 15.8581 10.6962 18.4894C9.60634 21.1206 9.32117 24.016 9.8768 26.8093C10.4324 29.6026 11.8039 32.1685 13.8178 34.1823C15.8316 36.1962 18.3975 37.5677 21.1908 38.1233C23.9841 38.6789 26.8795 38.3938 29.5107 37.3039C32.142 36.214 34.391 34.3683 35.9733 32.0002C37.5556 29.6322 38.4001 26.8481 38.4001 24C38.3957 20.1823 36.8771 16.5221 34.1775 13.8226C31.478 11.123 27.8179 9.60445 24.0001 9.60001ZM16.0001 28C16.4245 28 16.8314 27.8314 17.1315 27.5314C17.4315 27.2313 17.6001 26.8244 17.6001 26.4C17.6001 26.1878 17.6844 25.9844 17.8344 25.8343C17.9844 25.6843 18.1879 25.6 18.4001 25.6C18.6123 25.6 18.8158 25.6843 18.9658 25.8343C19.1158 25.9844 19.2001 26.1878 19.2001 26.4C19.2001 27.2487 18.863 28.0626 18.2628 28.6627C17.6627 29.2629 16.8488 29.6 16.0001 29.6C15.1514 29.6 14.3375 29.2629 13.7374 28.6627C13.1372 28.0626 12.8001 27.2487 12.8001 26.4V21.6C12.8001 20.7513 13.1372 19.9374 13.7374 19.3373C14.3375 18.7371 15.1514 18.4 16.0001 18.4C16.8488 18.4 17.6627 18.7371 18.2628 19.3373C18.863 19.9374 19.2001 20.7513 19.2001 21.6C19.2001 21.8122 19.1158 22.0157 18.9658 22.1657C18.8158 22.3157 18.6123 22.4 18.4001 22.4C18.1879 22.4 17.9844 22.3157 17.8344 22.1657C17.6844 22.0157 17.6001 21.8122 17.6001 21.6C17.6001 21.1757 17.4315 20.7687 17.1315 20.4686C16.8314 20.1686 16.4245 20 16.0001 20C15.5758 20 15.1688 20.1686 14.8687 20.4686C14.5687 20.7687 14.4001 21.1757 14.4001 21.6V26.4C14.4001 26.8244 14.5687 27.2313 14.8687 27.5314C15.1688 27.8314 15.5758 28 16.0001 28ZM27.2001 28.8C27.2001 29.0122 27.1158 29.2157 26.9658 29.3657C26.8158 29.5157 26.6123 29.6 26.4001 29.6C26.1879 29.6 25.9844 29.5157 25.8344 29.3657C25.6844 29.2157 25.6001 29.0122 25.6001 28.8V23.612L24.7497 25.8816C24.6927 26.0344 24.5904 26.1662 24.4564 26.2592C24.3224 26.3523 24.1632 26.4021 24.0001 26.4021C23.837 26.4021 23.6778 26.3523 23.5438 26.2592C23.4098 26.1662 23.3075 26.0344 23.2505 25.8816L22.4001 23.612V28.8C22.4001 29.0122 22.3158 29.2157 22.1658 29.3657C22.0158 29.5157 21.8123 29.6 21.6001 29.6C21.3879 29.6 21.1844 29.5157 21.0344 29.3657C20.8844 29.2157 20.8001 29.0122 20.8001 28.8V19.2C20.7996 19.0123 20.8651 18.8303 20.9852 18.6861C21.1053 18.5418 21.2724 18.4443 21.4571 18.4108C21.6418 18.3772 21.8324 18.4096 21.9956 18.5025C22.1588 18.5953 22.2841 18.7425 22.3497 18.9184L24.0001 23.3216L25.6505 18.9216C25.716 18.746 25.8411 18.5989 26.0039 18.5061C26.1668 18.4132 26.3571 18.3805 26.5416 18.4137C26.7261 18.4468 26.8931 18.5437 27.0134 18.6874C27.1338 18.8311 27.1999 19.0126 27.2001 19.2V28.8ZM35.2001 21.6C35.2001 21.8122 35.1158 22.0157 34.9658 22.1657C34.8158 22.3157 34.6123 22.4 34.4001 22.4C34.1879 22.4 33.9844 22.3157 33.8344 22.1657C33.6844 22.0157 33.6001 21.8122 33.6001 21.6C33.6001 21.2836 33.5063 20.9742 33.3305 20.7111C33.1546 20.448 32.9048 20.2429 32.6124 20.1218C32.32 20.0007 31.9983 19.969 31.688 20.0308C31.3776 20.0925 31.0925 20.2449 30.8687 20.4686C30.645 20.6924 30.4926 20.9775 30.4308 21.2879C30.3691 21.5982 30.4008 21.9199 30.5219 22.2123C30.643 22.5047 30.8481 22.7545 31.1112 22.9304C31.3743 23.1062 31.6837 23.2 32.0001 23.2C32.633 23.2 33.2517 23.3877 33.7779 23.7393C34.3042 24.0909 34.7143 24.5907 34.9565 25.1754C35.1987 25.7601 35.2621 26.4036 35.1386 27.0243C35.0151 27.645 34.7104 28.2152 34.2628 28.6627C33.8153 29.1103 33.2451 29.415 32.6244 29.5385C32.0037 29.662 31.3602 29.5986 30.7755 29.3564C30.1908 29.1142 29.691 28.7041 29.3394 28.1778C28.9878 27.6516 28.8001 27.0329 28.8001 26.4C28.8001 26.1878 28.8844 25.9844 29.0344 25.8343C29.1844 25.6843 29.3879 25.6 29.6001 25.6C29.8123 25.6 30.0158 25.6843 30.1658 25.8343C30.3158 25.9844 30.4001 26.1878 30.4001 26.4C30.4001 26.7165 30.4939 27.0258 30.6698 27.2889C30.8456 27.552 31.0954 27.7571 31.3878 27.8782C31.6802 27.9993 32.0019 28.031 32.3123 27.9693C32.6226 27.9075 32.9077 27.7551 33.1315 27.5314C33.3552 27.3076 33.5076 27.0225 33.5694 26.7122C33.6311 26.4018 33.5994 26.0801 33.4783 25.7877C33.3572 25.4954 33.1521 25.2455 32.889 25.0697C32.6259 24.8938 32.3166 24.8 32.0001 24.8C31.3672 24.8 30.7485 24.6123 30.2223 24.2607C29.696 23.9091 29.2859 23.4093 29.0437 22.8246C28.8015 22.2399 28.7381 21.5965 28.8616 20.9757C28.9851 20.355 29.2898 19.7848 29.7374 19.3373C30.1849 18.8897 30.7551 18.585 31.3758 18.4615C31.9966 18.338 32.64 18.4014 33.2247 18.6436C33.8094 18.8858 34.3092 19.2959 34.6608 19.8222C35.0124 20.3484 35.2001 20.9671 35.2001 21.6Z" fill="#AF60ED"/>
<path id="Vector_2" d="M47.084 21.8248C47.0447 21.517 46.9064 21.2303 46.6899 21.008C46.4735 20.7856 46.1907 20.6396 45.884 20.592L42.8 20.088C42.311 17.7319 41.3808 15.4896 40.0584 13.4792L41.8784 10.9352C42.0627 10.6846 42.1609 10.3811 42.1583 10.07C42.1557 9.75894 42.0525 9.45708 41.864 9.20959C41.4071 8.6456 40.9183 8.10819 40.4 7.59999C39.8885 7.08522 39.3513 6.5966 38.7904 6.13599C38.5429 5.94753 38.2411 5.84428 37.93 5.84168C37.619 5.83909 37.3154 5.93729 37.0648 6.12159L34.5208 7.94159C32.5105 6.6192 30.2681 5.68898 27.912 5.19999L27.4072 2.11919C27.3599 1.81258 27.2141 1.52969 26.9919 1.31322C26.7696 1.09674 26.483 0.958444 26.1752 0.919194C24.7292 0.764525 23.2708 0.764525 21.8248 0.919194C21.5171 0.958444 21.2304 1.09674 21.0082 1.31322C20.786 1.52969 20.6402 1.81258 20.5928 2.11919L20.088 5.19999C17.7319 5.68898 15.4896 6.6192 13.4792 7.94159L10.9352 6.12159C10.6846 5.93729 10.3811 5.83909 10.07 5.84168C9.75897 5.84428 9.45711 5.94753 9.20962 6.13599C8.6488 6.5966 8.11158 7.08522 7.60002 7.59999C7.08175 8.10819 6.59296 8.6456 6.13602 9.20959C5.94756 9.45708 5.84431 9.75894 5.84171 10.07C5.83912 10.3811 5.93732 10.6846 6.12162 10.9352L7.94162 13.4792C6.61923 15.4896 5.68901 17.7319 5.20003 20.088L2.11922 20.592C1.8126 20.6396 1.52975 20.7856 1.31331 21.008C1.09687 21.2303 0.958564 21.517 0.919225 21.8248C0.764555 23.2708 0.764555 24.7292 0.919225 26.1752C0.960945 26.482 1.10006 26.7673 1.31609 26.9891C1.53211 27.2108 1.81364 27.3574 2.11922 27.4072L5.20003 27.912C5.68901 30.2681 6.61923 32.5104 7.94162 34.5208L6.12162 37.0648C5.93732 37.3154 5.83912 37.6189 5.84171 37.93C5.84431 38.2411 5.94756 38.5429 6.13602 38.7904C6.59663 39.3512 7.08525 39.8884 7.60002 40.4C8.10949 40.9169 8.64654 41.4059 9.20882 41.8648C9.45495 42.0564 9.7573 42.1616 10.0692 42.1642C10.3811 42.1668 10.6851 42.0666 10.9344 41.8792L13.4784 40.0592C15.4891 41.3814 17.7317 42.3113 20.088 42.8L20.5928 45.8808C20.6402 46.1874 20.786 46.4703 21.0082 46.6868C21.2304 46.9032 21.5171 47.0415 21.8248 47.0808C23.2708 47.2355 24.7292 47.2355 26.1752 47.0808C26.483 47.0415 26.7696 46.9032 26.9919 46.6868C27.2141 46.4703 27.3599 46.1874 27.4072 45.8808L27.912 42.8C30.2681 42.311 32.5105 41.3808 34.5208 40.0584L37.0648 41.8784C37.3141 42.0658 37.6182 42.166 37.9301 42.1634C38.2419 42.1608 38.5443 42.0556 38.7904 41.864C39.353 41.4054 39.8903 40.9167 40.4 40.4C40.9151 39.8887 41.4039 39.3518 41.8648 38.7912C42.0533 38.5437 42.1565 38.2419 42.1591 37.9308C42.1617 37.6197 42.0635 37.3162 41.8792 37.0656L40.0592 34.5216C41.3814 32.5109 42.3114 30.2683 42.8 27.912L45.8808 27.4072C46.1864 27.3574 46.4679 27.2108 46.684 26.9891C46.9 26.7673 47.0391 26.482 47.0808 26.1752C47.2355 24.7292 47.2355 23.2708 47.0808 21.8248H47.084ZM24 40C20.8355 40 17.7421 39.0616 15.1109 37.3035C12.4797 35.5454 10.429 33.0465 9.21795 30.1229C8.00695 27.1993 7.6901 23.9822 8.30746 20.8785C8.92482 17.7749 10.4487 14.9239 12.6863 12.6863C14.924 10.4486 17.7749 8.92479 20.8786 8.30743C23.9823 7.69007 27.1993 8.00692 30.123 9.21792C33.0466 10.4289 35.5454 12.4797 37.3035 15.1109C39.0616 17.7421 40 20.8355 40 24C39.9952 28.242 38.3079 32.3088 35.3084 35.3083C32.3088 38.3079 28.242 39.9951 24 40Z" fill="#AF60ED"/>
</g>
</g>
<defs>
<clipPath id="clip0_129_1786">
<rect width="48" height="48" fill="white"/>
</clipPath>
</defs>
</svg>
