<svg width="48" height="48" viewBox="0 0 48 48" fill="none" xmlns="http://www.w3.org/2000/svg">
<g id="Frame" clip-path="url(#clip0_129_1331)">
<g id="Group">
<path id="Vector" d="M41.2328 12.3161L31.1382 1.98148C29.9094 0.750252 28.1861 0.013438 26.2181 0.013438H11.6906C7.99932 -0.233767 4.80006 2.9655 4.80006 6.65677V41.1094C4.79848 42.015 4.97571 42.9119 5.32158 43.7488C5.66745 44.5856 6.17516 45.346 6.81557 45.9862C7.45599 46.6264 8.21651 47.1338 9.05349 47.4794C9.89048 47.825 10.7875 48.0019 11.693 48H36.3079C37.2134 48.0019 38.1104 47.825 38.9474 47.4794C39.7844 47.1338 40.5449 46.6264 41.1853 45.9862C41.8257 45.346 42.3334 44.5856 42.6793 43.7488C43.0252 42.9119 43.2024 42.015 43.2008 41.1094V16.9938C43.2008 15.2705 42.4616 13.5473 41.2328 12.3161ZM16.6155 19.4538H24.0004C24.9845 19.4538 25.9685 20.193 25.9685 21.4219C25.9685 22.6531 25.2317 23.3899 24.0004 23.3899H16.6155C16.3561 23.3935 16.0986 23.345 15.8582 23.2473C15.6178 23.1497 15.3994 23.0049 15.216 22.8214C15.0325 22.6379 14.8877 22.4196 14.79 22.1792C14.6924 21.9388 14.6439 21.6813 14.6475 21.4219C14.6475 20.1906 15.6315 19.4538 16.6155 19.4538ZM31.3854 33.2349H16.6155C15.6315 33.2349 14.6475 32.4957 14.6475 31.2669C14.6475 30.038 15.3843 29.2988 16.6155 29.2988H31.3854C32.3694 29.2988 33.3534 30.0356 33.3534 31.2669C33.3534 32.4981 32.3694 33.2349 31.3854 33.2349Z" fill="#FF6838"/>
</g>
</g>
<defs>
<clipPath id="clip0_129_1331">
<rect width="48" height="48" fill="white"/>
</clipPath>
</defs>
</svg>
