<svg width="48" height="48" viewBox="0 0 48 48" fill="none" xmlns="http://www.w3.org/2000/svg">
<g id="Frame" clip-path="url(#clip0_129_1298)">
<g id="Group">
<path id="Vector" d="M27.6697 0H20.3198V7.34981H27.6697V0ZM20.3254 10.1625H27.6697V17.5124H20.3254V10.1625ZM30.4824 10.1625H37.8323V17.5124H30.4824V10.1625ZM30.4824 20.325H37.8323V27.675H30.4824V20.325ZM40.645 20.325H47.9949V27.675H40.645V20.325ZM20.3254 20.325H27.6697V27.675H20.3254V20.325ZM17.5071 20.325H10.1684V27.675H17.5127V20.325H17.5071ZM20.3254 30.4877H27.6697V37.8376H20.3254V30.4877ZM20.3198 40.6502V48H27.6697V40.6502H20.3254H20.3198ZM30.4824 30.4877H37.8323V37.8376H30.4824V30.4877ZM10.1629 37.8375H17.5127V30.4877H10.1629V37.8375ZM0.00585938 20.325V27.675H7.35567V20.325H7.35014H0.00585938ZM17.5071 17.5123H17.5127V10.1625H10.1629V17.5123H10.1684H17.5071Z" fill="#6DC58D"/>
</g>
</g>
<defs>
<clipPath id="clip0_129_1298">
<rect width="48" height="48" fill="white"/>
</clipPath>
</defs>
</svg>
