<svg width="48" height="48" viewBox="0 0 48 48" fill="none" xmlns="http://www.w3.org/2000/svg">
<g id="Frame">
<g id="Group">
<path id="Vector" d="M34.0978 0H13.9022C13.4432 -2.30193e-07 12.9887 0.0904657 12.5647 0.266226C12.1407 0.441987 11.7554 0.699595 11.431 1.02432C11.1066 1.34905 10.8494 1.73454 10.6741 2.15874C10.4987 2.58293 10.4087 3.03753 10.4092 3.49654V44.507C10.4092 46.4345 11.9694 48 13.9022 48H34.0978C35.0241 47.9995 35.9123 47.6314 36.5673 46.9764C37.2222 46.3214 37.5904 45.4332 37.5909 44.507V3.49654C37.5909 2.5698 37.223 1.68098 36.568 1.02535C35.913 0.369721 35.0246 0.000927197 34.0978 0ZM19.0167 2.12346H28.9868C29.2387 2.12346 29.4434 2.49953 29.4434 2.9648C29.4434 3.43007 29.2387 3.80789 28.9868 3.80789H19.0167C18.7631 3.80789 18.5619 3.43007 18.5619 2.9648C18.5619 2.49953 18.7631 2.12346 19.0167 2.12346ZM24.0018 44.5489C23.4103 44.5489 22.8431 44.314 22.4248 43.8957C22.0066 43.4775 21.7716 42.9103 21.7716 42.3188C21.7716 41.7273 22.0066 41.1601 22.4248 40.7418C22.8431 40.3236 23.4103 40.0886 24.0018 40.0886C24.5933 40.0886 25.1605 40.3236 25.5787 40.7418C25.997 41.1601 26.2319 41.7273 26.2319 42.3188C26.2319 42.9103 25.997 43.4775 25.5787 43.8957C25.1605 44.314 24.5933 44.5489 24.0018 44.5489ZM34.9742 36.9069H13.0276V5.89986H34.9742V36.9069Z" fill="#AF60ED"/>
</g>
</g>
</svg>
