<svg width="48" height="48" viewBox="0 0 48 48" fill="none" xmlns="http://www.w3.org/2000/svg">
<g id="Frame">
<g id="Group">
<path id="Vector" d="M32.4249 18.6198L29.0884 21.9545V21.9554C27.5246 27.2007 22.6562 31.036 16.9093 31.036C13.5423 31.036 10.4931 29.7247 8.22601 27.5964L16.9586 18.8638L21.5845 23.4898C22.1334 24.0387 23.0237 24.039 23.5729 23.4902L36.6411 10.4308L38.4501 12.2399C39.3339 13.1239 40.8495 12.496 40.8507 11.2469L40.8601 1.40784C40.8603 1.22285 40.824 1.03964 40.7532 0.868714C40.6825 0.697786 40.5787 0.542496 40.4479 0.411742C39.9969 -0.0388203 39.4621 0.00233591 39.4516 0.000179655L29.6196 0.0165859C28.3701 0.0185547 27.7448 1.5343 28.6275 2.41715L30.4111 4.20074L22.5355 12.0763L17.8374 7.37802C17.2885 6.82921 16.3977 6.82884 15.8486 7.37802L4.22223 19.0043C3.68898 8.88309 14.6549 2.31215 23.289 7.34549L25.3365 5.29799C15.3376 -1.18116 1.77095 5.70224 1.39932 17.8501C1.14095 26.6496 8.20988 33.8484 16.9093 33.8484C25.3693 33.8485 32.2712 27.0432 32.4249 18.6198ZM46.1959 41.622L32.5131 27.9392C31.0139 30.3632 28.9742 32.4075 26.5535 33.912L40.2296 47.5881C40.7786 48.1371 41.6691 48.1373 42.2183 47.5881L46.1959 43.6106C46.7448 43.0619 46.745 42.171 46.1959 41.622Z" fill="#58BD7D"/>
</g>
</g>
</svg>
