<svg width="24" height="24" viewBox="0 0 24 24" fill="none" xmlns="http://www.w3.org/2000/svg">
<g id="Frame" clip-path="url(#clip0_129_1374)">
<g id="Group">
<path id="Vector" d="M0.703168 2.81253H2.80942H2.85942V2.76253V0.703156C2.85932 0.564088 2.90051 0.428121 2.97777 0.312486C3.05503 0.196851 3.16487 0.106753 3.29339 0.0536096L0.703168 2.81253ZM0.703168 2.81253C0.564107 2.81242 0.428143 2.8536 0.312513 2.93085C0.196884 3.0081 0.106795 3.11794 0.0536676 3.24645M0.703168 2.81253L0.0536676 3.24645M0.0536676 3.24645C0.000340154 3.37492 -0.0136406 3.51634 0.0134977 3.65276M0.0536676 3.24645L0.0134977 3.65276M0.0134977 3.65276C0.040636 3.78919 0.107671 3.91448 0.206105 4.01277L0.0134977 3.65276ZM8.43442 7.49009V7.5108L8.44906 7.52545L12.4586 11.535C12.4593 11.5363 12.4602 11.5379 12.4613 11.5396C12.4627 11.5419 12.4646 11.5447 12.467 11.5476C12.468 11.5487 12.469 11.5499 12.47 11.551C12.7146 11.8072 12.7203 12.211 12.449 12.47C12.1911 12.7161 11.8056 12.713 11.5511 12.47C11.5469 12.466 11.5428 12.4632 11.5397 12.4612C11.538 12.4601 11.5363 12.4592 11.5351 12.4585L7.52555 8.449L7.51091 8.43436H7.4902H4.96884C4.88307 8.43437 4.79815 8.41747 4.71892 8.38464C4.63969 8.35181 4.56772 8.30368 4.5071 8.24301L4.50709 8.24299L0.24146 3.97741L0.241433 3.97738C0.150007 3.8861 0.0877433 3.76972 0.0625369 3.64301C0.0373305 3.51629 0.050316 3.38495 0.0998472 3.26562L0.0998748 3.26556C0.149219 3.14619 0.232893 3.04417 0.340289 2.97242C0.447686 2.90067 0.573968 2.86243 0.703126 2.86253H0.703168H2.85942H2.90942V2.81253V0.703156V0.703122C2.90933 0.573954 2.94759 0.447666 3.01935 0.340263C3.0911 0.23286 3.19313 0.149175 3.31249 0.0998148L3.31251 0.0998078C3.43187 0.0503992 3.56319 0.0374764 3.68989 0.0626722C3.81654 0.0878581 3.93289 0.150003 4.02425 0.241261C4.02428 0.241296 4.02432 0.241331 4.02435 0.241367L8.2429 4.50674L8.24309 4.50693C8.36555 4.62943 8.43442 4.79523 8.43442 4.96873V7.49009Z" fill="#6A3FE2" stroke="white" stroke-width="0.1"/>
<path id="Vector_2" d="M7.31364 1.23555C8.75471 0.599192 10.3362 0.200122 12 0.200122C18.4807 0.200122 23.8 5.51944 23.8 12C23.8 18.4806 18.4806 23.8 12 23.8C5.51944 23.8 0.200122 18.4806 0.200122 12C0.200122 10.3362 0.59923 8.75472 1.23552 7.31361L3.10158 9.17967C2.8182 10.0699 2.65945 11.0159 2.65945 12C2.65945 17.1505 6.84957 21.3406 12 21.3406C17.1505 21.3406 21.3406 17.1504 21.3406 12C21.3406 6.84962 17.1505 2.65945 12.0001 2.6595C11.016 2.6595 10.07 2.8182 9.17971 3.10162L7.31364 1.23555Z" fill="#6A3FE2" stroke="white" stroke-width="0.4"/>
<path id="Vector_3" d="M10.0906 6.82511V6.20312C10.6973 5.99928 11.3333 5.872 12 5.872C15.379 5.872 18.1281 8.62102 18.1281 12.0001C18.1281 15.3791 15.379 18.1282 12 18.1282C8.62094 18.1282 5.87188 15.3791 5.87188 12.0001C5.87188 11.3334 5.99916 10.6974 6.203 10.0907H6.82498L8.32111 11.5869C8.30286 11.7145 8.28433 11.8551 8.28433 12.0001C8.28433 14.049 9.95107 15.7157 12 15.7157C14.0488 15.7157 15.7156 14.049 15.7156 12.0001C15.7156 9.95124 14.0488 8.2845 12 8.2845C11.855 8.2845 11.7144 8.30303 11.5868 8.32128L10.0906 6.82511Z" fill="#6A3FE2" stroke="white" stroke-width="0.4"/>
</g>
</g>
<defs>
<clipPath id="clip0_129_1374">
<rect width="24" height="24" fill="white"/>
</clipPath>
</defs>
</svg>
