<svg width="48" height="48" viewBox="0 0 48 48" fill="none" xmlns="http://www.w3.org/2000/svg">
<g id="Frame" clip-path="url(#clip0_129_1570)">
<g id="Group">
<path id="Vector" d="M46.5938 0H40.875C40.0977 0 39.4688 0.628969 39.4688 1.40625V2.8125H27.9597C27.3773 1.17919 25.8309 0 24 0C22.1691 0 20.6227 1.17919 20.0403 2.8125H8.53125V1.40625C8.53125 0.628969 7.90228 0 7.125 0H1.40625C0.628969 0 0 0.628969 0 1.40625V7.03125C0 7.80853 0.628969 8.4375 1.40625 8.4375H7.125C7.90228 8.4375 8.53125 7.80853 8.53125 7.03125V5.60625H14.3066C9.42628 8.65509 6.20831 14.01 5.82366 20.0077C4.13634 20.5599 2.90625 22.1306 2.90625 24C2.90625 26.3263 4.79869 28.2188 7.125 28.2188C9.45131 28.2188 11.3438 26.3263 11.3438 24C11.3438 22.2056 10.213 20.68 8.63062 20.0712C9.11044 13.3845 13.7762 7.74862 20.2662 6.14062C20.9681 7.49784 22.3694 8.4375 24 8.4375C25.6306 8.4375 27.0319 7.49784 27.7338 6.14062C34.2238 7.74853 38.8896 13.3844 39.3694 20.0711C37.787 20.68 36.6562 22.2056 36.6562 24C36.6562 26.3263 38.5487 28.2188 40.875 28.2188C43.2013 28.2188 45.0938 26.3263 45.0938 24C45.0938 22.1306 43.8637 20.5599 42.1763 20.0077C41.7917 14.01 38.5737 8.67384 33.6934 5.625H39.4688V7.03125C39.4688 7.80853 40.0977 8.4375 40.875 8.4375H46.5938C47.371 8.4375 48 7.80853 48 7.03125V1.40625C48 0.628969 47.371 0 46.5938 0ZM33.5672 46.2558C32.8316 44.0049 30.7125 42.2812 28.2188 42.2812H19.7812C17.2875 42.2812 15.1684 44.0049 14.4328 46.2558C14.1492 47.1236 14.8875 48 15.8006 48H32.1994C33.1124 48 33.8508 47.1236 33.5672 46.2558Z" fill="#AF60ED"/>
<path id="Vector_2" d="M36.42 28.845L25.4063 12.3243V25.6653C27.0396 26.2477 28.2188 27.7941 28.2188 29.625C28.2188 31.9513 26.3263 33.8437 24 33.8437C21.6737 33.8437 19.7813 31.9513 19.7813 29.625C19.7813 27.7941 20.9605 26.2477 22.5938 25.6653V12.3243L11.58 28.845C11.2078 29.4025 11.282 30.1455 11.7558 30.6193C14.3374 33.2009 15.9876 36.5267 16.6244 40.0942C17.6013 39.6979 18.6638 39.4688 19.7813 39.4688H28.2188C29.3363 39.4688 30.3987 39.6978 31.3756 40.094C32.0125 36.5263 33.6626 33.2009 36.2442 30.6193C36.718 30.1455 36.7922 29.4025 36.42 28.845Z" fill="#AF60ED"/>
<path id="Vector_3" d="M24 28.2188C23.2241 28.2188 22.5938 28.8491 22.5938 29.625C22.5938 30.4009 23.2241 31.0312 24 31.0312C24.7759 31.0312 25.4062 30.4009 25.4062 29.625C25.4062 28.8491 24.7759 28.2188 24 28.2188Z" fill="#AF60ED"/>
</g>
</g>
<defs>
<clipPath id="clip0_129_1570">
<rect width="48" height="48" fill="white"/>
</clipPath>
</defs>
</svg>
