<svg width="48" height="48" viewBox="0 0 48 48" fill="none" xmlns="http://www.w3.org/2000/svg">
<g id="Frame" clip-path="url(#clip0_129_1589)">
<g id="Group">
<path id="Vector" d="M20.9999 16.0001H16.9999C16.4479 16.0001 15.9999 16.4481 15.9999 17.0001V29C15.9999 29.552 16.4479 30 16.9999 30H20.9999C21.5519 30 21.9999 29.552 21.9999 29V17.0001C21.9999 16.4481 21.5519 16.0001 20.9999 16.0001ZM13 22H9.00002C8.44803 22 8 22.448 8 23V29C8 29.552 8.44803 30 9.00002 30H13C13.552 30 14 29.552 14 29V23C13.9999 22.448 13.552 22 13 22ZM28.9998 10.0001H24.9998C24.4478 10.0001 23.9998 10.4481 23.9998 11.0001V29C23.9998 29.552 24.4478 30 24.9998 30H28.9998C29.5518 30 29.9998 29.552 29.9998 29V11.0001C29.9998 10.4481 29.5518 10.0001 28.9998 10.0001Z" fill="#FF6838"/>
<path id="Vector_2" d="M47.4135 44.5857L35.4757 32.6478C38.2997 29.1998 39.9996 24.7958 39.9996 19.9999C39.9996 8.972 31.0278 0.00012207 19.9999 0.00012207C8.97197 0.00012207 0 8.972 0 19.9999C0 31.0278 8.97188 39.9997 19.9998 39.9997C24.7957 39.9997 29.1997 38.2997 32.6476 35.4757L44.5856 47.4136C44.9756 47.8036 45.4875 47.9997 45.9996 47.9997C46.5116 47.9997 47.0236 47.8036 47.4136 47.4136C48.1956 46.6317 48.1956 45.3676 47.4135 44.5857ZM19.9998 35.9998C11.1779 35.9998 3.9999 28.8219 3.9999 19.9999C3.9999 11.1779 11.1779 4.00002 19.9998 4.00002C28.8217 4.00002 35.9996 11.178 35.9996 19.9999C35.9996 28.8218 28.8217 35.9998 19.9998 35.9998Z" fill="#FF6838"/>
</g>
</g>
<defs>
<clipPath id="clip0_129_1589">
<rect width="48" height="48" fill="white"/>
</clipPath>
</defs>
</svg>
