<svg width="31" height="25" viewBox="0 0 31 25" fill="none" xmlns="http://www.w3.org/2000/svg">
<g id="Dribbble">
<path id="Vector" d="M17.4308 20.5C13.0208 20.5 9.43079 16.91 9.43079 12.5C9.43079 8.09 13.0208 4.5 17.4308 4.5C21.8408 4.5 25.4308 8.1 25.4308 12.5C25.4308 16.9 21.8408 20.5 17.4308 20.5ZM24.1808 13.6C23.9508 13.53 22.0608 12.96 19.9208 13.31C20.8108 15.81 21.2208 17.81 21.2208 18.18C22.7808 17.1 23.8308 15.5 24.2308 13.6H24.1808ZM20.1008 18.8C20.0008 18.2 19.6008 16.11 18.6408 13.62C18.6208 13.62 18.6108 13.63 18.5908 13.63C14.7408 14.97 13.3508 17.65 13.2308 17.9C14.3908 18.8 15.8308 19.3 17.4308 19.3C18.3808 19.3 19.3308 19.1 20.1308 18.8H20.1008ZM12.3508 17.08C12.5008 16.81 14.3808 13.71 17.9008 12.57C17.9908 12.54 18.0808 12.51 18.1708 12.49C18.0008 12.1 17.8108 11.71 17.6208 11.33C14.2108 12.35 10.9008 12.31 10.6008 12.3C10.6008 12.4 10.6008 12.4 10.6008 12.51C10.6008 14.3 11.2308 15.9 12.3308 17.08L12.3508 17.1V17.08ZM10.7408 11.11C11.0508 11.11 13.8408 11.11 17.0608 10.28C15.9308 8.27 14.7108 6.58 14.5308 6.33C12.6108 7.2 11.2308 9 10.7308 11.11H10.7408ZM15.8308 5.9C16.0208 6.1 17.2308 7.8 18.3308 9.9C20.7608 8.99 21.7908 7.61 21.9108 7.43C20.7508 6.3 19.1308 5.7 17.4308 5.68C16.8808 5.7 16.3308 5.7 15.8308 5.9ZM22.7208 8.19C22.5808 8.38 21.4308 9.85 18.9008 10.88C19.0608 11.18 19.2008 11.58 19.4008 11.87C19.4508 11.97 19.5008 12.07 19.5008 12.17C21.7708 11.88 24.0008 12.37 24.3008 12.39C24.2508 10.8 23.6308 9.3 22.7308 8.19H22.7208Z" fill="#111111"/>
</g>
</svg>
