<svg width="31" height="25" viewBox="0 0 31 25" fill="none" xmlns="http://www.w3.org/2000/svg">
<g id="IG">
<g id="Group">
<path id="Vector" d="M17.4308 5.9C19.5308 5.9 19.8308 5.9 20.6308 5.9C21.4308 5.9 21.8308 6.1 22.1308 6.2C22.5308 6.3 22.7308 6.5 23.0308 6.8C23.3308 7.1 23.5308 7.3 23.6308 7.7C23.7308 8 23.8308 8.4 23.9308 9.2C23.9308 10 23.9308 10.3 23.9308 12.4C23.9308 14.5 23.9308 14.8 23.9308 15.6C23.9308 16.4 23.7308 16.8 23.6308 17.1C23.5308 17.5 23.3308 17.7 23.0308 18C22.7308 18.3 22.5308 18.5 22.1308 18.6C21.8308 18.7 21.4308 18.8 20.6308 18.9C19.8308 18.9 19.5308 18.9 17.4308 18.9C15.3308 18.9 15.0308 18.9 14.2308 18.9C13.4308 18.9 13.0308 18.7 12.7308 18.6C12.3308 18.5 12.1308 18.3 11.8308 18C11.5308 17.7 11.3308 17.5 11.2308 17.1C11.1308 16.8 11.0308 16.4 10.9308 15.6C10.9308 14.8 10.9308 14.5 10.9308 12.4C10.9308 10.3 10.9308 10 10.9308 9.2C10.9308 8.4 11.1308 8 11.2308 7.7C11.3308 7.3 11.5308 7.1 11.8308 6.8C12.1308 6.5 12.3308 6.3 12.7308 6.2C13.0308 6.1 13.4308 6 14.2308 5.9C15.0308 5.9 15.3308 5.9 17.4308 5.9ZM17.4308 4.5C15.2308 4.5 15.0308 4.5 14.1308 4.5C13.2308 4.5 12.7308 4.7 12.2308 4.9C11.7308 5.1 11.2308 5.4 10.8308 5.8C10.3308 6.3 10.0308 6.7 9.83079 7.3C9.63079 7.8 9.53079 8.4 9.43079 9.2C9.43079 10.1 9.43079 10.3 9.43079 12.5C9.43079 14.7 9.43079 14.9 9.43079 15.8C9.43079 16.7 9.63079 17.2 9.83079 17.7C10.0308 18.2 10.3308 18.7 10.7308 19.1C11.1308 19.5 11.6308 19.8 12.1308 20C12.6308 20.2 13.2308 20.3 14.0308 20.4C14.9308 20.4 15.1308 20.4 17.3308 20.4C19.5308 20.4 19.7308 20.4 20.6308 20.4C21.5308 20.4 22.0308 20.2 22.5308 20C23.0308 19.8 23.5308 19.5 23.9308 19.1C24.3308 18.7 24.6308 18.2 24.8308 17.7C25.0308 17.2 25.1308 16.6 25.2308 15.8C25.2308 14.9 25.2308 14.7 25.2308 12.5C25.2308 10.3 25.2308 10.1 25.2308 9.2C25.2308 8.3 25.0308 7.8 24.8308 7.3C24.6308 6.8 24.3308 6.3 23.9308 5.9C23.5308 5.5 23.0308 5.2 22.5308 5C22.0308 4.8 21.4308 4.7 20.6308 4.6C19.8308 4.5 19.6308 4.5 17.4308 4.5Z" fill="#111111"/>
<path id="Vector_2" d="M17.4312 8.40039C15.1312 8.40039 13.3312 10.2004 13.3312 12.5004C13.3312 14.8004 15.1312 16.6004 17.4312 16.6004C19.7312 16.6004 21.5312 14.8004 21.5312 12.5004C21.5312 10.2004 19.7312 8.40039 17.4312 8.40039ZM17.4312 15.2004C15.9312 15.2004 14.7312 14.0004 14.7312 12.5004C14.7312 11.0004 15.9312 9.80039 17.4312 9.80039C18.9312 9.80039 20.1312 11.0004 20.1312 12.5004C20.1312 14.0004 18.9312 15.2004 17.4312 15.2004Z" fill="#111111"/>
<path id="Vector_3" d="M22.6307 8.2002C22.6307 8.7002 22.2307 9.2002 21.6307 9.2002C21.0307 9.2002 20.6307 8.8002 20.6307 8.2002C20.6307 7.6002 21.0307 7.2002 21.6307 7.2002C22.2307 7.2002 22.6307 7.7002 22.6307 8.2002Z" fill="#111111"/>
</g>
</g>
</svg>
