<svg width="31" height="25" viewBox="0 0 31 25" fill="none" xmlns="http://www.w3.org/2000/svg">
<g id="Link">
<path id="path-1_24_" d="M22.0308 19.5V13.7C22.0308 12.3 21.5308 11.3 20.3308 11.3C19.3308 11.3 18.8308 12 18.5308 12.6C18.4308 12.8 18.4308 13.1 18.4308 13.5V19.5H15.0308C15.0308 19.5 15.1308 9.7 15.0308 8.7H18.4308V10.2C18.8308 9.5 19.6308 8.4 21.4308 8.4C23.7308 8.4 25.4308 9.9 25.4308 13.3V19.5H22.0308ZM11.3308 7.2C10.1308 7.2 9.43079 6.4 9.43079 5.4C9.43079 4.3 10.2308 3.5 11.3308 3.5C12.4308 3.5 13.2308 4.3 13.2308 5.4C13.3308 6.4 12.5308 7.2 11.3308 7.2ZM13.0308 19.5H9.63079V8.7H13.0308V19.5Z" fill="#111111"/>
</g>
</svg>
