<svg width="31" height="25" viewBox="0 0 31 25" fill="none" xmlns="http://www.w3.org/2000/svg">
<g id="X">
<path id="Vector" d="M27.1408 6.39C26.4308 6.7 25.6308 6.9 24.8308 7.03C25.6508 6.53 26.2808 5.74 26.5808 4.8C25.8108 5.26 24.9608 5.6 24.0508 5.8C23.3508 5 22.3308 4.5 21.1308 4.5C18.9308 4.5 17.1408 6.31 17.1408 8.54C17.1408 8.84 17.1408 9.14 17.2408 9.46C13.9708 9.3 11.0308 7.7 9.03083 5.2C8.73083 5.8 8.53083 6.5 8.53083 7.27C8.53083 8.67 9.23083 9.87 10.3308 10.63C9.68083 10.61 9.06083 10.43 8.52083 10.12C8.52083 10.12 8.52083 10.12 8.52083 10.22C8.52083 12.22 9.92083 13.82 11.7208 14.18C11.3808 14.27 11.0308 14.32 10.6708 14.32C10.4108 14.32 10.1608 14.29 9.92083 14.25C10.4308 15.85 11.9208 17.05 13.6208 17.05C12.2608 18.13 10.5408 18.78 8.67083 18.78C8.35083 18.78 8.03083 18.76 7.72083 18.72C9.48083 19.8 11.5308 20.5 13.8308 20.5C21.1608 20.5 25.1708 14.35 25.1708 9.01C25.1708 8.83 25.1708 8.66 25.1608 8.49C25.9308 7.9 26.6308 7.2 27.1308 6.39H27.1408Z" fill="#111111"/>
</g>
</svg>
